{"accessors":[{"bufferView":0,"byteOffset":0,"componentType":5126,"count":42016,"max":[9.054304122924805,71.51144409179688,77.26358032226563],"min":[-72.12706756591797,-108.7062759399414,-47.340728759765625],"type":"VEC3"},{"bufferView":1,"byteOffset":0,"componentType":5121,"count":84028,"normalized":true,"type":"VEC4"},{"bufferView":2,"byteOffset":0,"componentType":5125,"count":252084,"type":"SCALAR"}],"asset":{"generator":"VTK","version":"2.0"},"bufferViews":[{"buffer":0,"byteLength":504192,"byteOffset":0},{"buffer":1,"byteLength":336112,"byteOffset":0},{"buffer":2,"byteLength":1008336,"byteOffset":0}],"buffers":[{"byteLength":504192,"uri":"data:application/octet-stream;base64,"},{"byteLength":336112,"uri":"data:application/octet-stream;base64,"},{"byteLength":1008336,"uri":"data:application/octet-stream;base64,"}],"cameras":[{"perspective":{"aspectRatio":1.6006711409395973,"yfov":0.5235987755982988,"zfar":659.0196810498494,"znear":287.30894064648544},"type":"perspective"}],"materials":[{"pbrMetallicRoughness":{"baseColorFactor":[1.0,1.0,1.0,1.0],"metallicFactor":0.0,"roughnessFactor":1.0}}],"meshes":[{"name":"mesh0","primitives":[{"attributes":{"COLOR_0":1,"POSITION":0},"indices":2,"material":0,"mode":4}]}],"nodes":[{"matrix":[2.220446049250314e-16,-3.330669073875469e-16,1.0000000000000002,0.0,1.0,2.220446049250313e-16,-2.220446049250313e-16,0.0,-2.2204460492503128e-16,1.0000000000000002,3.3306690738754696e-16,0.0,0.0,0.0,0.0,1.0],"mesh":0,"name":"mesh0"},{"camera":0,"matrix":[-0.36629362175685537,0.8650424233689461,0.3428273449306909,-0.0,-0.3866848458895998,-0.4766250538710688,0.7894956541879997,0.0,0.8463473356841047,0.15662108349255538,0.5090835133708769,-0.0,350.4950894096133,52.09954313050458,244.75587936036672,1.0],"name":"Camera Node"},{"children":[0,1],"name":"Renderer Node"}],"scene":0,"scenes":[{"name":"Layer 0","nodes":[2]}]}